<?xml version="1.0" encoding="UTF-8"?>
<!DOCTYPE svg PUBLIC "-//W3C//DTD SVG 1.1//EN" "http://www.w3.org/Graphics/SVG/1.1/DTD/svg11.dtd">
<!-- Creator: CorelDRAW 2018 (64-Bit) -->
<svg xmlns="http://www.w3.org/2000/svg" xml:space="preserve" width="220.738mm" height="41.9051mm" version="1.1" style="shape-rendering:geometricPrecision; text-rendering:geometricPrecision; image-rendering:optimizeQuality; fill-rule:evenodd; clip-rule:evenodd"
viewBox="0 0 22073.76 4190.51"
 xmlns:xlink="http://www.w3.org/1999/xlink">
 <defs>
  <style type="text/css">
   <![CDATA[
    .fil0 {fill:whitesmoke}
   ]]>
  </style>
 </defs>
 <g id="Layer_x0020_1">
  <metadata id="CorelCorpID_0Corel-Layer"/>
  <path class="fil0" d="M71.09 1578.69c562.96,31.88 966.49,309.5 1228.34,801.72 117.13,220.14 173.75,456.58 169.86,707.27 -2.64,153.43 -0.73,306.92 -0.73,460.35l0 0.2c-0.26,194.8 -0.86,389.93 0.73,585 0.26,41.11 -9.31,57.28 -54.58,57.28 -125.57,-0.27 -125.31,2.04 -144.78,-120.57 -77.4,-487.93 -334.57,-837.74 -793.53,-1029.7 -130,-54.58 -267.72,-80.64 -409.07,-79.59 -48.83,0.27 -67.57,-12.73 -67.31,-66.71 2.38,-416.27 2.64,-832.86 0,-1249.12 -0.52,-57.41 18.48,-69.03 71.07,-66.13zm3676.83 -1577.88c56.55,-4.22 78.59,6.93 78.06,71.8 -3.43,403.59 -3.43,806.99 0,1210.58 0.53,62.76 -18.94,81.7 -77.93,86.98 -248.91,22.37 -488.52,83.01 -702.99,214.33 -471.04,288.38 -771.69,697.38 -824.54,1257.77 -34.71,366.7 -6.54,736.31 -11.82,1104.6 -0.99,65.86 -1.84,131.78 0.53,197.38 1.32,35.1 -11.28,43.49 -45,44.54 -148.41,4.75 -148.35,6.14 -148.35,-140.16l0 -1072.47 -2.9 0c0,-342.22 -0.27,-684.11 0,-1026.27 0.53,-593.38 213.08,-1096.16 654.95,-1492.63 305.53,-274.45 668.08,-426.62 1079.99,-456.45zm6.79 1578.74c61.84,-6.07 71.93,15.51 71.14,71.4 -3.17,206.16 -1.38,412.11 -1.38,618.26l-0.33 -0.33c0,212.75 -0.8,425.31 0.46,638.06 0.26,38.14 -4.16,56.29 -51.47,58.14 -646.9,24.48 -1157.53,524.15 -1196.8,1170 -2.31,38.2 -12.07,52.72 -52.85,53.51 -134.69,2.64 -134.69,4.49 -134.69,-133.1 0,-353.04 -0.26,-705.76 0,-1058.74 0.79,-599.98 448.99,-1189.47 1025.61,-1350.55 111.86,-31.34 224.5,-55.36 340.31,-66.65zm-3685.99 -1567.85c522.44,29.83 959.62,236.77 1297.56,637.73 317.41,377 479.22,813.85 475.06,1310.49 -2.91,339.85 -0.53,679.69 -0.53,1019.48l0.53 -0.33c0,381.42 -1.12,762.97 0.99,1144.39 0.26,50.62 -11.81,66.98 -64.47,65.66 -132.84,-3.17 -132.84,-0.53 -132.84,-134.35 0,-331.14 3.36,-662.34 -0.79,-993.22 -7.39,-577.54 -235.32,-1048.44 -700.16,-1395.42 -257.62,-192.36 -550.22,-293.06 -873.64,-293.06 -53.12,0 -70.34,-12.67 -70.08,-68.76 2.38,-407.75 2.38,-815.37 0,-1223.19 -0.52,-54.31 12.87,-72.52 68.37,-69.42zm20703.19 1230.05c730.05,0 1301.85,440.35 1301.85,1189.6l0 46.39 -1838.54 0c30.88,355.36 235.52,540.85 544.55,540.85 243.23,0 421.01,-119.83 502.18,-363.14l768.58 0c-135.15,533 -614.23,872.98 -1282.44,872.98 -768.59,0 -1313.14,-452.03 -1313.14,-1143.41 0,-687.48 556.1,-1143.2 1316.96,-1143.27zm-7214.14 393.89c181.54,-243.37 467.47,-378.51 807.39,-378.51 656.6,0 1096.81,448.07 1096.81,1127.89 0,672.05 -444.04,1127.9 -1096.81,1127.9 -339.92,0 -625.85,-135.21 -807.39,-378.51l0 328.16 -811.08 0 0 -2703.67 811.08 0 0 876.74zm-4630.24 926.9c0,278.01 177.58,409.46 424.71,409.53 181.54,0 339.91,-77.34 436.52,-193.22l0 -1471.64 807.32 0 0 2155.36 -807.32 0 0 -274.32c-181.54,208.6 -440.28,324.48 -760.8,324.48 -540.72,0 -907.75,-324.48 -907.75,-838.21l0 -1367.31 807.32 0 0 1255.33zm9406.52 -1305.28c536.89,0.06 903.86,324.4 903.86,841.96l0 1363.55 -807.32 0 0 -1255.46c-0.2,-270.29 -173.88,-409.33 -421.14,-409.33 -185.24,0 -339.79,77.21 -436.53,196.91l0 1467.88 -810.95 0 0 -2155.36 810.95 0 0 274.32c181.61,-204.7 444.38,-324.47 761.13,-324.47zm-10350.57 81.03l-982.33 0 0 2124.28 -841.96 0 0 -2124.28 -986.22 0 0 -579.39 2810.51 0 0 579.39zm8506.15 2124.28l-803.42 0 0 -2155.36 803.42 0 0 2155.36zm-3957.61 -1549.04c-73.38,-15.38 -150.58,-23.17 -227.79,-23.17 -258.82,0 -502.12,88.96 -621.83,255.06l0 1317.02 -811.27 0 0 -2155.23 811.27 0 0 393.9c169.93,-281.91 436.46,-440.22 811.09,-440.22l38.53 0 0 652.64zm1581.98 -138.78c-339.92,0.07 -559.93,216.32 -559.99,610.27 0,397.79 220.07,614.11 559.99,614.17 339.85,0 556.16,-216.31 556.16,-614.17 0,-394.02 -216.31,-610.27 -556.16,-610.27zm6657.91 -38.54c-254.92,0.07 -436.45,139.04 -505.94,386.24l1011.95 0c-81.03,-251.09 -266.6,-386.24 -506.01,-386.24zm-4282.28 -583.41l-803.42 0c0,-270.96 219.68,-490.57 490.57,-490.57l312.85 0 0 490.57z"/>
 </g>
</svg>
