<svg width="127" height="24" viewBox="0 0 127 24" fill="none" xmlns="http://www.w3.org/2000/svg">
<path d="M0.407286 9.04162C3.6316 9.22432 5.94259 10.8144 7.44244 13.6334C8.11317 14.8941 8.43768 16.2484 8.4151 17.6842C8.40003 18.563 8.41217 19.4422 8.41217 20.3209V20.3219C8.41066 21.4376 8.40606 22.5552 8.4151 23.6725C8.4166 23.908 8.36185 24.0006 8.1026 24.0006C7.38375 23.9991 7.38504 24.0122 7.2735 23.3102C6.8303 20.5154 5.35741 18.5119 2.72858 17.4127C1.98411 17.1003 1.19603 16.9507 0.386779 16.9567C0.106503 16.9582 -0.00136953 16.8841 5.98842e-05 16.5748C0.0136261 14.1907 0.0151337 11.8047 5.98842e-05 9.42053C-0.00293467 9.09153 0.106023 9.02506 0.407286 9.04162ZM21.4659 0.00450955C21.7899 -0.0196315 21.9162 0.0442373 21.9131 0.415642C21.8936 2.72727 21.8936 5.03761 21.9131 7.34924C21.9161 7.70841 21.8044 7.81709 21.4669 7.84728C20.0411 7.97565 18.6698 8.32309 17.4415 9.07482C14.7432 10.7267 13.0218 13.0689 12.7188 16.2789C12.5199 18.3791 12.6806 20.4959 12.6505 22.6051C12.6444 22.9825 12.6398 23.36 12.6534 23.736C12.6609 23.9367 12.5885 23.9848 12.3956 23.9908C11.5457 24.018 11.546 24.0259 11.546 23.1881V17.0455H11.5294C11.5294 15.0857 11.5278 13.1274 11.5294 11.1676C11.5324 7.7688 12.7504 4.88967 15.2813 2.61877C17.0314 1.04698 19.1068 0.17513 21.4659 0.00450955ZM21.5049 9.0465C21.8592 9.01177 21.9167 9.13558 21.9122 9.45568C21.8941 10.6362 21.9044 11.8152 21.9044 12.9957L21.9034 12.9947C21.9034 14.213 21.8988 15.4298 21.9063 16.6481C21.9078 16.867 21.8817 16.9715 21.6104 16.982C17.9053 17.1225 14.9815 19.984 14.7569 23.6832C14.7433 23.9021 14.6868 23.9853 14.4532 23.9899C13.6817 24.005 13.6817 24.0152 13.6817 23.2272C13.6817 21.2055 13.6802 19.1853 13.6817 17.1637C13.6862 13.7272 16.2532 10.351 19.5557 9.42834C20.1963 9.24867 20.8417 9.11143 21.5049 9.0465ZM0.393615 0.0670095C3.38578 0.237629 5.88976 1.4228 7.82526 3.71935C9.64315 5.87851 10.5701 8.38057 10.546 11.2252C10.5294 13.1714 10.543 15.1179 10.543 17.0641L10.546 17.0621C10.546 19.247 10.5398 21.432 10.5518 23.6168C10.5533 23.9067 10.4841 24.0003 10.1827 23.9928C9.4218 23.9747 9.42193 23.9892 9.42193 23.2223C9.42194 21.326 9.44117 19.4296 9.41705 17.5348C9.37483 14.2266 8.06932 11.5296 5.40729 9.5426C3.93172 8.44059 2.25568 7.86396 0.40338 7.86388C0.0988866 7.86388 0.000505615 7.79096 0.00201301 7.46935C0.0155768 5.13369 0.0155784 2.79916 0.00201301 0.463494C-0.00093342 0.152862 0.0759689 0.0489909 0.393615 0.0670095ZM118.971 7.11193C123.152 7.11212 126.426 9.63386 126.426 13.9254V14.191H115.896C116.073 16.2262 117.245 17.2877 119.015 17.2877C120.408 17.2877 121.426 16.6023 121.891 15.2086H126.293C125.519 18.2615 122.775 20.2086 118.948 20.2086C114.546 20.2086 111.427 17.6197 111.427 13.6598C111.427 9.72212 114.613 7.11193 118.971 7.11193ZM77.6524 9.36779C78.6922 7.97429 80.3289 7.19984 82.2755 7.19982C86.0363 7.19982 88.5587 9.76623 88.5587 13.6598C88.5586 17.509 86.0141 20.1197 82.2755 20.1197C80.3289 20.1197 78.6922 19.3452 77.6524 17.9518V19.8317H73.0059V4.34631H77.6524V9.36779ZM51.1319 14.6764C51.1319 16.2692 52.1497 17.0211 53.5655 17.0211C54.6049 17.021 55.5115 16.5791 56.0645 15.9156V7.48693H60.6885V19.8307H56.0645V18.2604C55.0248 19.4548 53.543 20.1187 51.7071 20.1188C48.61 20.1188 46.5079 18.2603 46.5079 15.318V7.48693H51.1319V14.6764ZM105.007 7.19982C108.082 7.19985 110.184 9.05868 110.184 12.0231V19.8326H105.56V12.6422C105.56 11.0938 104.564 10.2975 103.148 10.2975C102.087 10.2975 101.202 10.7397 100.648 11.4254V19.8326H96.003V7.48791H100.648V9.05822C101.688 7.88579 103.193 7.19982 105.007 7.19982ZM45.7247 7.66467H40.0987V19.8317H35.2764V7.66467H29.628V4.34631H45.7247V7.66467ZM71.7774 10.9596C71.3571 10.8711 70.9142 10.8268 70.4717 10.8268C68.9897 10.8268 67.5961 11.3357 66.9102 12.2867V19.8307H62.2647V7.48693H66.9102V9.74279C67.8836 8.12803 69.41 7.22131 71.5557 7.22131H71.7774V10.9596ZM94.4434 19.8307H89.8419V7.48693H94.4434V19.8307ZM80.838 10.1647C78.8912 10.1647 77.6299 11.4033 77.6299 13.6598C77.63 15.9383 78.8912 17.1774 80.838 17.1774C82.7845 17.1772 84.0235 15.9382 84.0235 13.6598C84.0235 11.4034 82.7845 10.1648 80.838 10.1647ZM118.971 9.94299C117.511 9.94299 116.471 10.74 116.072 12.1559H121.868C121.404 10.7181 120.342 9.94316 118.971 9.94299ZM94.4434 6.60217H89.8419C89.8419 5.05064 91.1 3.79283 92.6514 3.7926H94.4434V6.60217Z" fill="#1D2021"/>
</svg>
